:SAMPLES-PER-SECOND 24
:FULLY-SPECIFIED
:DEGREES
423
root  4.36949 37.8263 5.03154 174.489 -41.3815 -179.702
RightUpLeg  -10.8583 -9.1724 -19.7997
RightLeg  8.4174 10.6871 0.885253
RightFoot  10.1958 -2.66449 14.2664
RightToes  -1.74623e-010 0 -2.59999e-017
Spine  7.66213 -0.361814 -11.1164
Spine1  11.4321 -4.13885 10.4324
HEad  -6.00138 -26.1469 13.8208
LeftShoulder1  1.86577 -3.67159 -19.5133
LeftArm  23.7102 -21.9922 -53.4353
LeftForeArm  68.2648 -79.1301 -84.3299
LeftHand  0.0724099 6.5448 9.614
RightShoulder  3.03032 5.33391 28.343
RightArm  -35.5152 1.71278 19.1168
RightForeArm  -15.9115 3.09213 9.07984
RightHand  -1.33776 0.288464 -27.074
LeftUpLeg  -11.0548 5.71337 4.93912
LeftLeg  36.371 -2.57621 -1.6619
LeftFoot  -16.0683 0.00728616 -2.17077
LeftToes  -6.27559e-011 -2.10356e-011 8.24929e-012
424
root  4.08513 38.34 6.70429 172.889 -36.5031 -178.276
RightUpLeg  -10.1522 -13.6249 -16.294
RightLeg  11.5949 4.69924 1.3431
RightFoot  6.93797 -1.57221 10.0019
RightToes  -1.74623e-010 0 -2.59999e-017
Spine  8.00064 0.117806 -8.99768
Spine1  11.5158 -3.20222 9.14255
HEad  -5.69036 -24.2591 13.7263
LeftShoulder1  1.87321 -3.57741 -19.9979
LeftArm  23.5548 -20.1318 -53.6842
LeftForeArm  71.5012 -79.1674 -87.7169
LeftHand  0.0875439 6.63816 10.2639
RightShoulder  3.08197 5.46122 28.4349
RightArm  -27.2611 -4.1889 17.7865
RightForeArm  -10.8792 4.26719 11.231
RightHand  -1.64173 1.15046 -28.7698
LeftUpLeg  -9.84863 6.0566 3.94479
LeftLeg  33.1578 1.55487 1.43804
LeftFoot  -13.2629 0.0554863 -1.46355
LeftToes  -6.27559e-011 -2.10356e-011 8.24929e-012
425
root  3.94945 38.8318 8.24449 171.965 -31.8624 -177.739
RightUpLeg  -8.87629 -18.9759 -13.2718
RightLeg  18.8725 3.53942 1.19939
RightFoot  2.76453 -0.740292 6.12422
RightToes  -1.74623e-010 0 -2.59999e-017
Spine  8.20729 0.626336 -7.96195
Spine1  11.172 -2.38487 8.08645
HEad  -4.82675 -22.1471 13.2086
LeftShoulder1  1.92513 -3.53493 -20.9559
LeftArm  22.9705 -15.3761 -52.4269
LeftForeArm  81.0718 -79.0957 -97.1997
LeftHand  0.105171 6.90845 9.90449
RightShoulder  3.01675 5.42018 27.8434
RightArm  -16.9444 -10.131 19.4747
RightForeArm  -9.34055 6.79448 12.9231
RightHand  -1.58999 0.69437 -29.9103
LeftUpLeg  -8.45173 5.13027 2.78655
LeftLeg  28.9151 6.001 3.92615
LeftFoot  -9.64932 0.0773306 -1.23041
LeftToes  -6.27559e-011 -2.10356e-011 8.24929e-012
426
root  3.94408 39.1692 9.68924 171.984 -28.1283 -177.692
RightUpLeg  -7.59832 -22.0096 -11.8712
RightLeg  27.9184 1.81653 0.820575
RightFoot  0.0280424 -0.197174 1.98178
RightToes  -1.74623e-010 0 -2.59999e-017
Spine  7.35818 0.821863 -7.57145
Spine1  10.9806 -1.8769 6.92291
HEad  -3.78348 -19.6891 13.2216
LeftShoulder1  1.93789 -3.49737 -21.3067
LeftArm  22.924 -9.75517 -50.636
LeftForeArm  91.2117 -78.6467 -107.653
LeftHand  0.118597 7.11985 9.66579
RightShoulder  3.0436 5.46359 27.9838
RightArm  -6.42708 -15.8516 22.0669
RightForeArm  -8.71015 9.26011 13.3353
RightHand  -1.44642 0.778504 -26.9513
LeftUpLeg  -8.15933 6.41425 1.94701
LeftLeg  25.0561 7.88926 4.3558
LeftFoot  -6.251 0.0541129 -0.371537
LeftToes  -6.27559e-011 -2.10356e-011 8.24929e-012
427
root  4.07086 39.2462 11.0975 172.099 -25.5339 -178.205
RightUpLeg  -5.21472 -24.8167 -12.3979
RightLeg  37.8886 0.711483 0.344159
RightFoot  -2.72011 -0.0378746 0.288857
RightToes  -1.74623e-010 0 -2.59999e-017
Spine  6.17418 1.01136 -7.8471
Spine1  11.5272 -1.53776 5.87695
HEad  -2.59709 -17.8494 13.7938
LeftShoulder1  1.90074 -3.36392 -21.3027
LeftArm  23.4183 -4.77288 -49.0313
LeftForeArm  97.3755 -78.1914 -113.799
LeftHand  0.121359 7.34585 8.84241
RightShoulder  3.19252 5.65746 28.9166
RightArm  2.3672 -21.4531 24.7159
RightForeArm  -8.50241 11.283 13.0894
RightHand  -1.12983 0.236459 -23.1616
LeftUpLeg  -8.42778 9.02165 1.0107
LeftLeg  22.1622 8.39027 3.89986
LeftFoot  -3.85641 -0.0505198 1.13908
LeftToes  -6.27559e-011 -2.10356e-011 8.24929e-012
428
root  4.2822 39.1249 12.5654 172.441 -23.5929 -179.321
RightUpLeg  -1.5997 -26.5789 -14.5567
RightLeg  46.4096 0.80137 0.60026
RightFoot  -3.49531 -0.0241515 0.00802122
RightToes  -1.74623e-010 0 -2.59999e-017
Spine  4.49591 1.48638 -8.2647
Spine1  13.0493 -0.962598 4.89505
HEad  -1.06143 -17.1551 13.9348
LeftShoulder1  1.86834 -3.18831 -21.5592
LeftArm  23.7891 -0.626531 -47.6283
LeftForeArm  100.549 -78.0767 -115.686
LeftHand  0.110813 7.44178 7.9217
RightShoulder  3.33173 5.81135 29.8566
RightArm  9.3516 -26.9055 28.0835
RightForeArm  -8.39555 13.2965 12.3255
RightHand  -0.792161 -0.5684 -19.0656
LeftUpLeg  -9.5867 7.97916 -0.525106
LeftLeg  20.4878 11.4246 3.95382
LeftFoot  -1.78468 -0.183446 2.33345
LeftToes  -6.27559e-011 -2.10356e-011 8.24929e-012
429
root  4.55861 38.8763 14.1455 173.213 -21.5049 179.433
RightUpLeg  1.56846 -25.8642 -16.1917
RightLeg  52.5252 1.21932 1.33969
RightFoot  -0.916016 0.0616225 -0.664685
RightToes  -1.74623e-010 0 -2.59999e-017
Spine  2.28946 2.32113 -7.92044
Spine1  15.1103 0.179664 3.67869
HEad  0.166599 -16.7969 13.1696
LeftShoulder1  1.84207 -2.98893 -22.0384
LeftArm  23.5969 3.27769 -46.3402
LeftForeArm  102.396 -78.1565 -115.754
LeftHand  0.135692 7.70336 8.30496
RightShoulder  3.49844 5.93548 31.1716
RightArm  14.8794 -31.4302 31.7291
RightForeArm  -5.17102 15.8385 10.4954
RightHand  -0.500493 -1.02254 -13.3524
LeftUpLeg  -12.0281 5.51308 -2.31573
LeftLeg  19.9043 15.6406 4.97421
LeftFoot  0.674771 -0.427819 4.01397
LeftToes  -6.27559e-011 -2.10356e-011 8.24929e-012
430
root  4.91349 38.5737 15.8728 173.606 -19.2252 178.581
RightUpLeg  4.74717 -22.7601 -16.1253
RightLeg  54.6189 1.86755 2.4325
RightFoot  4.07126 -0.178777 1.52652
RightToes  -1.74623e-010 0 -2.59999e-017
Spine  0.967972 3.24515 -6.66633
Spine1  16.9794 1.44569 2.50433
HEad  0.387714 -16.0698 11.8263
LeftShoulder1  1.82005 -2.74852 -22.8196
LeftArm  22.2409 7.60969 -44.8357
LeftForeArm  105.493 -78.042 -117.53
LeftHand  0.215392 8.39997 9.47408
RightShoulder  3.6682 6.04653 32.5283
RightArm  18.4399 -34.2711 35.1752
RightForeArm  0.915414 19.7836 6.8672
RightHand  -0.139793 -1.49025 -3.97254
LeftUpLeg  -14.4673 4.57875 -3.22136
LeftLeg  19.1561 18.9309 5.44264
LeftFoot  3.07 -0.721184 5.55228
LeftToes  -6.27559e-011 -2.10356e-011 8.24929e-012
431
root  5.28979 38.4092 17.7035 173.507 -16.8755 178.359
RightUpLeg  8.29953 -17.8728 -14.1501
RightLeg  51.0292 3.46077 4.2007
RightFoot  5.29208 -0.897729 6.54007
RightToes  -1.74623e-010 0 -2.59999e-017
Spine  0.738991 3.71653 -4.32533
Spine1  18.0906 2.39009 1.59538
HEad  -0.159992 -14.6835 10.1741
LeftShoulder1  1.83052 -2.59878 -23.7515
LeftArm  19.4883 12.6152 -43.225
LeftForeArm  110.44 -77.6082 -121.614
LeftHand  0.29756 8.98037 10.5973
RightShoulder  3.7344 6.08401 33.0694
RightArm  15.0782 -34.8042 37.4098
RightForeArm  8.30119 24.1778 4.60186
RightHand  0.265345 -0.73731 6.73154
LeftUpLeg  -15.7547 3.61131 -2.81136
LeftLeg  16.239 21.3687 4.15181
LeftFoot  5.54759 -0.788213 5.09181
LeftToes  -6.27559e-011 -2.10356e-011 8.24929e-012
432
root  5.71198 38.1932 19.7448 174.025 -14.1325 177.705
RightUpLeg  10.5847 -11.2647 -11.056
RightLeg  43.6833 4.46828 4.27992
RightFoot  -5.31347 -0.541214 9.77585
RightToes  -1.74623e-010 0 -2.59999e-017
Spine  1.11964 3.89974 -2.34595
Spine1  18.4933 3.08094 0.815051
HEad  -0.980188 -12.2686 8.2929
LeftShoulder1  1.88886 -2.68014 -24.3292
LeftArm  16.196 17.1108 -42.3156
LeftForeArm  112.687 -77.3224 -123.764
LeftHand  0.36844 9.29357 11.8047
RightShoulder  3.70157 6.04238 32.8958
RightArm  8.15681 -32.6416 37.438
RightForeArm  11.8031 28.1832 5.45349
RightHand  0.418945 -0.979729 11.1128
LeftUpLeg  -17.452 1.07639 -2.28214
LeftLeg  12.4441 24.8084 2.51511
LeftFoot  7.60264 -0.597429 3.3356
LeftToes  -6.27559e-011 -2.10356e-011 8.24929e-012
433
root  6.20525 37.7967 22.1526 174.938 -11.5442 176.474
RightUpLeg  10.5917 -5.52646 -8.6773
RightLeg  36.1126 1.92788 1.30267
RightFoot  -19.2932 0.416016 8.11033
RightToes  -1.74623e-010 0 -2.59999e-017
Spine  2.88302 3.82361 -1.12159
Spine1  18.7369 3.37544 -0.152932
HEad  -2.26362 -9.08285 6.05102
LeftShoulder1  1.98289 -2.91985 -24.6705
LeftArm  13.4227 18.8872 -42.1473
LeftForeArm  110.023 -77.5619 -121.757
LeftHand  0.431915 9.54554 12.8157
RightShoulder  3.57991 5.90751 32.1566
RightArm  5.06032 -27.2426 36.2464
RightForeArm  11.3561 30.8481 6.1199
RightHand  0.213081 -1.72519 6.83006
LeftUpLeg  -19.6284 -1.39962 -2.20324
LeftLeg  8.0525 28.2772 0.907817
LeftFoot  6.19501 0.0329508 -0.384451
LeftToes  -6.27559e-011 -2.10356e-011 8.24929e-012
434
root  6.60117 37.5773 24.7356 175.338 -9.7338 176.694
RightUpLeg  8.24638 -5.00035 -7.67893
RightLeg  31.6387 0.604564 0.165091
RightFoot  -25.1163 0.368917 4.46358
RightToes  -1.74623e-010 0 -2.59999e-017
Spine  5.80363 2.97393 2.35612
Spine1  18.8459 3.23839 -1.50872
HEad  -4.3756 -5.97152 3.18671
LeftShoulder1  2.05216 -3.10308 -24.8738
LeftArm  11.7689 16.9964 -42.7325
LeftForeArm  103.783 -78.2053 -115.886
LeftHand  0.486137 9.71228 13.7304
RightShoulder  3.4379 5.7688 31.1869
RightArm  4.43692 -18.4801 34.2641
RightForeArm  9.24493 30.0072 6.03204
RightHand  -0.106632 -0.346198 -2.42975
LeftUpLeg  -19.9229 -2.57269 -0.917319
LeftLeg  0.41587 25.9037 -2.36798
LeftFoot  1.60577 1.06695 -9.47432
LeftToes  -6.27559e-011 -2.10356e-011 8.24929e-012
435
root  6.86336 37.5891 27.2664 176.03 -7.79242 178.059
RightUpLeg  2.84367 -8.9575 -7.57811
RightLeg  31.67 4.57998 2.82727
RightFoot  -25.0193 0.0343968 1.68248
RightToes  -1.74623e-010 0 -2.59999e-017
Spine  8.19512 2.19381 6.7139
Spine1  18.704 3.21441 -2.36841
HEad  -6.56118 -3.52883 0.336976
LeftShoulder1  2.07737 -3.19695 -24.8128
LeftArm  11.7015 12.277 -44.587
LeftForeArm  93.8727 -79.0029 -105.33
LeftHand  0.559433 9.93129 14.878
RightShoulder  3.40264 5.80096 30.6726
RightArm  3.39725 -8.33937 31.0822
RightForeArm  1.10817 24.9102 5.48773
RightHand  -0.850842 2.88965 -12.1668
LeftUpLeg  -20.4964 -2.44507 1.4924
LeftLeg  -4.5337 18.3603 -4.10881
LeftFoot  -0.737566 1.74137 -18.4397
LeftToes  -6.27559e-011 -2.10356e-011 8.24929e-012
436
root  7.08851 37.8702 29.545 177.255 -5.79166 178.421
RightUpLeg  -3.55748 -12.3945 -7.52252
RightLeg  33.0367 8.49555 5.66853
RightFoot  -21.7745 -0.145877 -0.00751749
RightToes  -1.74623e-010 0 -2.59999e-017
Spine  9.40199 2.2846 7.87951
Spine1  18.3191 3.39976 -1.8226
HEad  -7.57676 -2.00128 -0.843063
LeftShoulder1  2.08823 -3.2807 -24.5804
LeftArm  13.3599 6.23648 -47.1578
LeftForeArm  82.5153 -79.4206 -92.8805
LeftHand  0.585642 9.98574 15.3406
RightShoulder  3.40774 5.89422 30.3588
RightArm  -8.62024 -0.559544 28.0088
RightForeArm  -2.77203 18.1095 7.28269
RightHand  -1.50525 3.90181 -19.0213
LeftUpLeg  -22.6116 -1.10917 2.39255
LeftLeg  -1.54182 14.3877 -4.10425
LeftFoot  0.234439 1.83096 -18.0243
LeftToes  -6.27559e-011 -2.10356e-011 8.24929e-012
437
root  7.24956 38.4862 31.5009 177.926 -5.09949 177.612
RightUpLeg  -6.68043 -13.9775 -7.66213
RightLeg  30.3239 9.79279 5.9083
RightFoot  -16.3464 -0.137721 -0.667529
RightToes  -1.74623e-010 0 -2.59999e-017
Spine  10.2847 2.22474 6.85654
Spine1  17.5915 3.17588 -1.17271
HEad  -7.64109 -1.30968 0.0158898
LeftShoulder1  2.06774 -3.34595 -23.9595
LeftArm  15.9538 0.0846027 -49.5101
LeftForeArm  74.5763 -79.3989 -84.698
LeftHand  0.493764 9.50156 14.582
RightShoulder  3.30105 5.83696 29.4199
RightArm  -25.1906 2.74537 27.731
RightForeArm  -3.4796 14.6643 8.74246
RightHand  -1.44374 1.41665 -24.5953
LeftUpLeg  -22.682 0.222453 1.33224
LeftLeg  4.30906 16.2161 -4.20747
LeftFoot  0.579161 1.4051 -13.4389
LeftToes  -6.27559e-011 -2.10356e-011 8.24929e-012
